{"accessors":[{"name":"Node-Mesh_positions","componentType":5126,"count":2489,"min":[-5.149193286895752,1,-7.495384216308594],"max":[3.0253119468688965,5.241429805755615,8.269506454467773],"type":"VEC3","bufferView":0,"byteOffset":0},{"name":"Node-Mesh_normals","componentType":5126,"count":2489,"min":[-0.9999808073043823,-1,-0.9994620680809021],"max":[0.9992462992668152,1,0.9997435212135315],"type":"VEC3","bufferView":0,"byteOffset":29868},{"name":"Node-Mesh_texcoords","componentType":5126,"count":2489,"min":[0.000005299574240780203,0.000014500000361294951],"max":[0.999994695186615,0.9999837875366211],"type":"VEC2","bufferView":1,"byteOffset":0},{"name":"Node-Mesh_0_indices","componentType":5123,"count":12972,"min":[0],"max":[2488],"type":"SCALAR","bufferView":2,"byteOffset":0}],"asset":{"generator":"obj2gltf","version":"2.0"},"buffers":[{"name":"combined","byteLength":780676,"uri":"data:application/octet-stream;base64,"}],"bufferViews":[{"name":"bufferView_0","buffer":0,"byteLength":59736,"byteOffset":0,"byteStride":12,"target":34962},{"name":"bufferView_1","buffer":0,"byteLength":19912,"byteOffset":59736,"byteStride":8,"target":34962},{"name":"bufferView_2","buffer":0,"byteLength":25944,"byteOffset":79648,"target":34963},{"buffer":0,"byteOffset":105592,"byteLength":675081}],"images":[{"name":"image1560143262397.JPG.obj","mimeType":"image/jpeg","bufferView":3}],"materials":[{"name":"image1560143262397JPGobjmtl","pbrMetallicRoughness":{"baseColorTexture":{"index":0,"texCoord":0},"baseColorFactor":[1,1,1,1],"metallicFactor":0,"roughnessFactor":1},"emissiveFactor":[0,0,0],"alphaMode":"OPAQUE","doubleSided":false}],"meshes":[{"name":"Node-Mesh","primitives":[{"attributes":{"POSITION":0,"NORMAL":1,"TEXCOORD_0":2},"indices":3,"material":0,"mode":4}]}],"nodes":[{"name":"Node","mesh":0}],"samplers":[{"magFilter":9729,"minFilter":9986,"wrapS":10497,"wrapT":10497}],"scene":0,"scenes":[{"nodes":[0]}],"textures":[{"name":"image1560143262397.JPG.obj","sampler":0,"source":0}]}
