<svg xmlns="http://www.w3.org/2000/svg" width="43" height="60" viewBox="0 0 43 60"><path fill="#003781" d="M21.5 60c-.432 0-.839-.202-1.101-.546C19.573 58.367.161 32.696.161 21.339.161 9.573 9.733 0 21.5 0s21.339 9.573 21.339 21.339c0 11.357-19.412 37.028-20.238 38.115A1.384 1.384 0 0 1 21.5 60z"/><path d="M7.869 18.239H6.73l.606-1.978.533 1.978zM6.14 20.42l.388-1.299h1.534l.363 1.299h1.421l-1.412-4.958c-.081-.292-.258-.428-.566-.428h-2.01v.468h.169c.21 0 .323.082.323.242 0 .106-.024.194-.107.436l-1.412 4.24H6.14zm5.344 0v-4.973c0-.259-.152-.413-.403-.413H9.838v.468h.081c.21 0 .298.089.298.3v4.617h1.267zm2.155 0v-4.973c0-.259-.154-.413-.404-.413h-1.243v.468h.08c.211 0 .299.089.299.3v4.617h1.268zm2.211-4.894c0-.361-.267-.58-.727-.58-.452 0-.728.219-.728.58 0 .365.276.581.728.581.459 0 .727-.216.727-.581m-.024 4.894v-3.625c0-.259-.154-.411-.405-.411h-1.226v.459h.072c.21 0 .298.096.298.307v3.27h1.261zm2.775-1.939v.785c-.211.219-.468.349-.686.349-.227 0-.307-.112-.307-.414 0-.299.063-.435.29-.523.17-.074.388-.138.703-.197m-1.705-.942c.421-.202.881-.315 1.244-.315.34 0 .461.121.461.474v.09c-.516.082-.678.114-.969.179-.168.04-.324.087-.478.153-.509.204-.75.598-.75 1.203 0 .767.331 1.138 1.017 1.138.25 0 .477-.048.679-.128.177-.079.282-.145.541-.347v.057c0 .249.128.378.379.378h1.154v-.435h-.057c-.217 0-.298-.098-.298-.355v-1.923c0-1.025-.356-1.382-1.382-1.382-.331 0-.653.042-.967.114-.317.072-.479.137-.856.323l.282.776zm5.119 2.881v-2.729c.211-.235.428-.34.678-.34.267 0 .331.105.331.512v2.558h1.259v-2.745c0-.639-.046-.84-.249-1.057-.17-.187-.428-.283-.76-.283-.493 0-.84.153-1.306.589v-.161c0-.251-.131-.379-.389-.379h-1.196v.459h.072c.21 0 .3.096.3.307v3.27h1.26zm6.006-.848h-1.76l1.68-2.356v-.833h-2.632c-.299 0-.436.137-.436.437v.733h.468v-.072c0-.185.097-.274.298-.274h.906l-1.696 2.383v.83h3.173v-.848zm6.611.745v-4.563c0-.363-.129-.486-.482-.486h-1.068v.51h.064c.244 0 .291.055.291.349v4.191h1.195zm.527 0h1.187v-3.554c0-.357-.138-.485-.486-.485h-.701v4.039zm-2.246 0v-4.039h-.703c-.348 0-.484.129-.484.485v3.554h1.187zm4.554-2.319c0 2.011-1.446 3.472-3.432 3.472-1.987 0-3.432-1.462-3.432-3.472 0-2.011 1.446-3.473 3.432-3.473 1.987-.001 3.432 1.47 3.432 3.473m.702 0c0-2.364-1.769-4.135-4.134-4.135-2.367 0-4.135 1.771-4.135 4.135 0 2.367 1.768 4.134 4.135 4.134 2.366-.001 4.134-1.767 4.134-4.134M11.413 27.47c-.838 0-1.202-.312-1.202-.312l-.039-.858s.331.435 1.15.435c.468 0 .714-.189.714-.546 0-.312-.123-.409-.468-.61l-.507-.292c-.351-.202-.831-.481-.831-1.234 0-.779.474-1.273 1.442-1.273.734 0 1.111.305 1.111.305v.825s-.318-.396-1.059-.396c-.461 0-.61.188-.61.468s.208.396.506.572l.481.28c.474.273.831.597.831 1.273.001.791-.467 1.363-1.519 1.363m3.774-.15s-.214.13-.689.13c-.305 0-.591-.065-.786-.325-.149-.201-.175-.468-.175-.831v-1.683h-.351v-.617h.351v-.578l.89-.182v.76h.779v.617h-.779v1.637c0 .175.013.305.065.39.059.091.169.156.331.156.286 0 .396-.117.396-.117l-.032.643zm2.19.104v-.429s-.176.455-.864.455c-.702 0-.968-.533-.968-1.046 0-1.053.864-1.104 1.429-1.131l.377-.019v-.156c0-.201-.013-.52-.624-.52-.558 0-.844.305-.844.305v-.676s.312-.26 1.098-.26c1.189 0 1.228.689 1.228 1.117v2.306l-.832.054zm-.02-1.63l-.286.02c-.377.026-.663.117-.663.526 0 .195.085.448.449.448.305 0 .5-.214.5-.487v-.507zm3.432 1.637v-.442s-.201.468-.864.468c-.767 0-1.234-.584-1.234-1.676 0-1.605.831-1.839 1.423-1.839.435 0 .663.24.663.24V22.5l.89-.104v4.97l-.878.065zm-.013-2.618s-.136-.201-.487-.201c-.474 0-.695.312-.695 1.072s.221 1.039.65 1.039c.286 0 .533-.169.533-.539v-1.371zm1.822-1.423c-.318 0-.507-.169-.507-.442 0-.357.253-.468.507-.468.318 0 .507.169.507.442 0 .358-.253.468-.507.468m-.448.604h.897v3.404h-.897v-3.404zm3.379 3.43v-.442s-.247.468-.942.468c-.331 0-.565-.104-.728-.253-.305-.286-.318-.702-.318-.962v-2.241h.89v2.007c0 .324.007.708.539.708.234 0 .546-.136.546-.513v-2.202h.89v3.371l-.877.059zm5.284-.026v-1.994c0-.332-.013-.721-.52-.721-.273 0-.552.15-.552.513v2.202h-.89v-1.994c0-.332-.013-.721-.52-.721-.273 0-.553.15-.553.513v2.202h-.89v-3.404h.877v.415s.247-.468.929-.468c.695 0 .883.474.883.474s.26-.481 1.027-.481c.208 0 .526.026.773.253.298.273.325.649.325.981v2.228h-.889z" fill="#FFF"/></svg>