<svg id="Layer_1" xmlns="http://www.w3.org/2000/svg" width="42.7" height="60" viewBox="0 0 42.7 60"><style>.st0{fill:#02643e}.st1{fill:#fff}</style><g id="precinct-scg-gate-c"><path id="path-precinct-scg-gate-c" class="st0" d="M21.3 60c-.4 0-.8-.2-1.1-.5C19.4 58.4 0 32.7 0 21.3 0 9.6 9.6 0 21.3 0s21.3 9.6 21.3 21.3c0 11.4-19.4 37-20.2 38.1-.2.4-.6.6-1.1.6z"/><path class="st1" d="M21.9 37.1c-.7 0-1.3-.1-1.9-.3-.6-.2-1.1-.5-1.6-1-.5-.4-.8-1-1.1-1.7s-.3-1.4-.3-2.3c0-.9.1-1.7.4-2.3.3-.7.6-1.2 1.1-1.7.5-.5 1-.8 1.6-1.1.6-.2 1.2-.4 1.9-.4s1.3.1 1.9.4 1 .6 1.4 1l-1.4 1.8c-.3-.2-.5-.4-.8-.6-.3-.1-.6-.2-.9-.2-.3 0-.6.1-.9.2-.3.1-.5.3-.7.6-.2.3-.4.6-.5.9-.1.4-.2.8-.2 1.3 0 1 .2 1.7.6 2.3.4.5 1 .8 1.6.8.4 0 .8-.1 1.1-.3.3-.2.6-.4.8-.6l1.4 1.7c-.4.5-1 .9-1.5 1.2-.7.2-1.3.3-2 .3zm-15-17.6c0-.7.1-1.2.3-1.8.2-.5.5-.9.8-1.3.3-.3.7-.6 1.2-.8.4-.2.9-.3 1.4-.3.5 0 1 .1 1.4.3.4.2.7.4 1 .7l-1.1 1.3c-.2-.2-.3-.3-.5-.4-.2-.1-.4-.1-.7-.1-.2 0-.4.1-.6.2-.2.1-.4.3-.5.4-.1.2-.3.4-.3.7-.2.3-.3.7-.3 1 0 .7.1 1.3.4 1.7.3.4.7.6 1.2.6h.3c.1 0 .2-.1.2-.1v-1.1h-1v-1.7H13v3.7c-.1.1-.3.2-.5.4l-.6.3c-.2.1-.4.2-.7.2-.2.1-.5.1-.7.1-.5 0-1-.1-1.4-.2-.4-.3-.8-.5-1.1-.8-.3-.3-.6-.7-.8-1.2-.2-.6-.3-1.2-.3-1.8zm11.9 2.2h-2.1l-.4 1.7h-2.1l2.4-7.8H19l2.4 7.8h-2.2l-.4-1.7zm-.4-1.6l-.1-.5-.3-1.2c-.1-.4-.2-.9-.3-1.2-.1.4-.2.8-.3 1.3l-.3 1.2-.1.4h1.4zm5.3-2.9h-2.2v-1.7H28v1.7h-2.2v6.1h-2.1v-6.1zm5.9-1.7h5.3v1.7h-3.2v1.2h2.7v1.7h-2.7v1.4H35v1.7h-5.4v-7.7z"/></g></svg>