<svg id="Layer_1" xmlns="http://www.w3.org/2000/svg" width="42.7" height="60" viewBox="0 0 42.7 60"><style>.st0{fill:#30851f}.st1{fill:#fff}</style><g id="precinct-venue-services"><path id="path-precinct-venue-services" class="st0" d="M21.3 60c-.4 0-.8-.2-1.1-.5C19.4 58.4 0 32.7 0 21.3 0 9.6 9.6 0 21.3 0s21.3 9.6 21.3 21.3c0 11.4-19.4 37-20.2 38.1-.2.4-.6.6-1.1.6z"/><path class="st1" d="M9.2 17.9c-.6.8-.9 1.7-.9 2.6 0 .9.3 1.8.8 2.6l3.5-.1c0-.1-.1-.3-.1-.4 0-.3.1-.5.3-.8l-3.6-3.9zm5.1-3.5l1.8 5.9c.8-.2 1.7-.4 2.7-.5l-.5-6.4c-1.4.2-2.8.5-4 1zm4.4 13.2l.2-2.3c-1.2-.1-2.2-.3-3.1-.6L14 26.4c1.3.6 2.9 1 4.7 1.2zm-5.2-6.3c.5-.3 1.1-.6 1.9-.9l-1.8-5.8c-1.7.7-3 1.6-4 2.7l3.9 4zm1.4 3.2c-.7-.3-1.2-.5-1.6-.9l-3.5.1c.8.9 2 1.7 3.4 2.4l1.7-1.6zm9.3-11.1l-.5 6.4c.9.1 1.8.2 2.6.4l1.9-5.9c-1.2-.4-2.6-.7-4-.9zm4.9 12.9l-1.9-1.6c-1 .3-2.2.5-3.5.6l.1 2.3c2-.2 3.8-.6 5.3-1.3zm.5-2.8c-.3.3-.8.6-1.5.9l1.9 1.5c1.3-.6 2.4-1.4 3.1-2.3l-3.5-.1zm3.8-5.7l-3.7 4c.2.2.3.5.3.8v.1l3.6.1c.5-.7.7-1.5.7-2.4 0-.9-.3-1.8-.9-2.6zm-10.5 7.6h-1.6c-.6 0-1.2 0-1.8-.1l-.2 2.3c.6.1 1.3.1 1.9.1.6 0 1.1 0 1.7-.1v-2.2zm4.2-5c.9.2 1.6.6 2.1.9l3.8-4.1c-.9-1-2.3-1.9-4-2.6l-1.9 5.8zm-5.8-.7h1.5l.5-6.4c-.7-.1-1.3-.1-2-.1-.8 0-1.5 0-2.3.1l.5 6.4h1.8z"/><path class="st1" d="M21.5 28.8c-5.3.1-10.1-1.9-13.2-4.9 2.5 4.4 7.4 7.3 13.2 7.2C27.1 31 32 28 34.3 23.6c-3 3.1-7.6 5.1-12.8 5.2zm-6.6-17.2h.7v2.6h-.7zm-2.7-2.7h1.2v1.2h-1.2zm1.6 0H15v1.2h-1.2zm1.6 0h1.2v1.2h-1.2zm1.6 0h1.2v1.2H17zm-4.8 1.5h1.2v1.2h-1.2zm1.6 0H15v1.2h-1.2zm1.6 0h1.2v1.2h-1.2zm1.6 0h1.2v1.2H17zm10.1 1.2h.7v2.6h-.7zm-2.6-2.7h1.2v1.2h-1.2zm1.6 0h1.2v1.2h-1.2zm1.6 0h1.2v1.2h-1.2zm1.5 0h1.2v1.2h-1.2zm-4.7 1.5h1.2v1.2h-1.2zm1.6 0h1.2v1.2h-1.2zm1.6 0h1.2v1.2h-1.2zm1.5 0h1.2v1.2h-1.2z"/></g></svg>