<svg id="Layer_1" xmlns="http://www.w3.org/2000/svg" width="42.7" height="60" viewBox="0 0 42.7 60"><style>.st0{fill:#0077c8}.st1{fill:#fff}</style><g id="precinct-members-pool"><path id="path-precinct-members-pool" class="st0" d="M21.3 60c-.4 0-.8-.2-1.1-.5C19.4 58.4 0 32.7 0 21.3 0 9.6 9.6 0 21.3 0s21.3 9.6 21.3 21.3c0 11.4-19.4 37-20.2 38.1-.2.4-.6.6-1.1.6z"/><circle class="st1" cx="25.9" cy="14.3" r="3.9"/><path class="st1" d="M16.9 20.5c.2.3.7.3.9 0 1-1.1 2.3-1.8 3.8-2.1.1-.6.1-1.2-.1-1.8-.1-.3-1.3-4.4-1.3-4.4s-.1-.9.4-1.6c.4-.9 1.5-1.4 3-1.6.9-.1 1.4-.9 1.3-1.8-.1-.9-.9-1.4-1.8-1.3-2.4.4-4.2 1.3-5.3 2.8-1.3 1.9-.9 3.9-.8 4.1l.3 1.3c-.2 0-.4.1-.6.1l-6.3 2.2c-1.4.7-2.3 2-2.4 3.4 1.1-.9 2.6-1.5 4.1-1.5 1.8 0 3.6.8 4.8 2.2z"/><path class="st1" d="M12 22.6c.3-.3.8-.5 1.3-.5s1 .2 1.3.5c.7.7 1.7 1.1 2.7 1.1 1 0 2-.4 2.7-1.1.3-.3.8-.5 1.3-.5s1 .2 1.3.5c1.5 1.5 3.9 1.5 5.4 0 .3-.3.8-.5 1.3-.5s1 .2 1.3.5c1.5 1.5 3.9 1.5 5.4 0 .4-.4.4-1 0-1.4s-1-.4-1.4 0c-.3.3-.8.5-1.3.5s-1-.2-1.3-.5c-1.5-1.5-3.9-1.5-5.4 0-.7.7-1.9.7-2.6 0-.7-.7-1.7-1.1-2.7-1.1-1 0-2 .4-2.7 1.1-.3.3-.8.5-1.3.5s-1-.2-1.3-.5c-1.5-1.5-3.9-1.5-5.4 0-.3.3-.8.5-1.3.5s-1-.2-1.3-.5c-.4-.4-1-.4-1.4 0-.4.4-.4 1 0 1.4 1.5 1.5 3.9 1.5 5.4 0zm0 4.4c.3-.3.8-.5 1.3-.5s1 .2 1.3.5c.7.7 1.7 1.1 2.7 1.1 1 0 2-.4 2.7-1.1.3-.3.8-.5 1.3-.5s1 .2 1.3.5c1.5 1.5 3.9 1.5 5.4 0 .3-.3.8-.5 1.3-.5s1 .2 1.3.5c1.5 1.5 3.9 1.5 5.4 0 .4-.4.4-1 0-1.4s-1-.4-1.4 0c-.3.3-.8.5-1.3.5s-1-.2-1.3-.5c-1.5-1.5-3.9-1.5-5.4 0-.7.7-1.9.7-2.6 0-.7-.7-1.7-1.1-2.7-1.1-1 0-2 .4-2.7 1.1-.3.3-.8.5-1.3.5s-1-.2-1.3-.5c-1.5-1.5-3.9-1.5-5.4 0-.3.3-.8.5-1.3.5s-1-.2-1.3-.5c-.4-.4-1-.4-1.4 0-.4.4-.4 1 0 1.4 1.5 1.5 3.9 1.5 5.4 0z"/></g></svg>