<svg id="Layer_1" xmlns="http://www.w3.org/2000/svg" width="42.7" height="60" viewBox="0 0 42.7 60"><style>.st0{fill:#e8a721}.st1{fill:#fff}</style><g id="precinct-entertainment-quater"><path id="path-precinct-entertainment-quater" class="st0" d="M21.3 60c-.4 0-.8-.2-1.1-.5C19.4 58.4 0 32.7 0 21.3 0 9.6 9.6 0 21.3 0s21.3 9.6 21.3 21.3c0 11.4-19.4 37-20.2 38.1-.2.4-.6.6-1.1.6z"/><path class="st1" d="M10.1 17.2c0 1.3.9 2.4 2.1 2.7v9.2h-1.4c-.4 0-.7.3-.7.7 0 .4.3.7.7.7h21.1c.4 0 .7-.3.7-.7 0-.4-.3-.7-.7-.7h-1.4v-9.2c1.2-.3 2.1-1.4 2.1-2.7v-.7H10.1v.7zM24.2 20c1.6 0 2.8-1.3 2.8-2.8 0 1.3.9 2.4 2.1 2.7v9.2H18.5V20c1.6 0 2.8-1.3 2.8-2.8 0 1.6 1.3 2.8 2.9 2.8zm-6.4-.1v9.2h-4.2v-9.2c1.2-.3 2.1-1.4 2.1-2.7 0 1.3.9 2.4 2.1 2.7zm12-9.7H12.9l-2.8 5.6h22.5l-2.8-5.6zM16 11.7l-1.4 2.8c-.1.1-.2.2-.3.2h-.2c-.2-.1-.2-.3-.2-.5l1.4-2.8c.1-.2.3-.2.5-.2.2.2.3.4.2.5zm2.8 0l-1.4 2.8c-.1.1-.2.2-.3.2h-.2c-.2-.1-.2-.3-.2-.5l1.4-2.8c.1-.2.3-.2.5-.2.3.2.3.4.2.5zm2.9 2.7c0 .2-.2.4-.4.4s-.4-.2-.4-.4v-2.8c0-.2.2-.4.4-.4s.4.2.4.4v2.8zm4 .3h-.2c-.1 0-.2-.1-.3-.2l-1.5-2.8c-.1-.2 0-.4.1-.5.2-.1.4 0 .5.1l1.5 2.8c.2.3.1.5-.1.6zm2.8 0h-.2c-.1 0-.3-.1-.3-.2l-1.4-2.8c-.1-.2 0-.4.2-.5.2-.1.4 0 .5.2l1.4 2.8c.1.2 0 .4-.2.5zM16.1 25.1v-1.6c-.2-.1-.4-.3-.4-.6 0-.4.3-.7.7-.7.4 0 .7.3.7.7 0 .3-.1.5-.4.6v1.6c.2.1.4.3.4.6 0 .4-.3.7-.7.7-.4 0-.7-.3-.7-.7 0-.3.2-.5.4-.6zM12.9 8.8c0-.4.3-.7.7-.7h15.5c.4 0 .7.3.7.7 0 .4-.3.7-.7.7H13.6c-.4 0-.7-.3-.7-.7zm9.5 15l-.5-.5 2-2 .5.5-2 2zm0 2l-.5-.5 4-4 .5.5-4 4zm3.5-2.5l.5.5-2 2-.5-.5 2-2z"/></g></svg>