<svg id="Layer_1" xmlns="http://www.w3.org/2000/svg" width="42.7" height="60" viewBox="0 0 42.7 60"><style>.st0{fill:#e8a721}.st1{fill:#fff}</style><g id="precinct-bbq-area"><path id="path-precinct-bbq-area" class="st0" d="M21.3 60c-.4 0-.8-.2-1.1-.5C19.4 58.4 0 32.7 0 21.3 0 9.6 9.6 0 21.3 0s21.3 9.6 21.3 21.3c0 11.4-19.4 37-20.2 38.1-.2.4-.6.6-1.1.6z"/><path class="st1" d="M18 11c-.5-.3-.5-1 0-1.4.4-.3.5-1 .2-1.4-.3-.4-1-.5-1.4-.2-1.5 1.1-1.5 3.4 0 4.6.5.3.5 1 0 1.4-.4.3-.5 1-.2 1.4.3.4 1 .5 1.4.2 1.5-1.1 1.5-3.4 0-4.6zm3.9 0c-.5-.3-.5-1 0-1.4.4-.3.5-1 .2-1.4-.3-.4-1-.5-1.4-.2-1.5 1.1-1.5 3.4 0 4.6.5.3.5 1 0 1.4-.4.3-.5 1-.2 1.4.3.4 1 .5 1.4.2 1.6-1.1 1.6-3.4 0-4.6zm4 0c-.5-.3-.5-1 0-1.4.4-.3.5-1 .2-1.4-.3-.4-1-.5-1.4-.2-1.5 1.1-1.5 3.4 0 4.6.5.3.5 1 0 1.4-.4.3-.5 1-.2 1.4.3.4 1 .5 1.4.2 1.5-1.1 1.5-3.4 0-4.6zm7.4 6H9.5c-.5 0-1 .4-1 1 0 .5.4 1 1 1h23.9c.5 0 1-.4 1-1-.1-.5-.6-1-1.1-1z"/><path class="st1" d="M31.8 18.8h-21c.9 3 3 5.5 5.8 6.9l-1.2 3.7c-1.6 0-2.9 1.2-3 2.8-.1 1.7 1.3 3.1 3 3.1 1.6 0 2.9-1.2 3-2.8 0-.4 0-.8-.2-1.1H26l1.2 3.3c.2.5.8.8 1.3.6.5-.2.8-.7.6-1.3l-2.9-8.4c2.7-1.3 4.8-3.8 5.6-6.8zM17.5 29.4l1-3.1c.9.2 1.9.4 2.8.4 1 0 1.9-.1 2.9-.4l1.1 3.1h-7.8z"/></g></svg>