<svg id="Layer_1" xmlns="http://www.w3.org/2000/svg" width="42.7" height="60" viewBox="0 0 42.7 60"><style>.st0{fill:#704b43}.st1{fill:#fff}</style><g id="precinct-ep2-event-parking"><path id="path-precinct-ep2-event-parking" class="st0" d="M21.3 60c-.4 0-.8-.2-1.1-.5C19.4 58.4 0 32.7 0 21.3 0 9.6 9.6 0 21.3 0s21.3 9.6 21.3 21.3c0 11.4-19.4 37-20.2 38.1-.2.4-.6.6-1.1.6z"/><path class="st1" d="M15.6 24.2c-1.4 0-2.5 1.1-2.5 2.5s1.1 2.5 2.5 2.5 2.5-1.1 2.5-2.5c-.1-1.4-1.2-2.5-2.5-2.5zm0 3.2c-.4 0-.7-.3-.7-.7s.3-.7.7-.7c.4 0 .7.3.7.7s-.3.7-.7.7z"/><path class="st1" d="M33.6 24.6l-.4-3.3c-.1-.6-.6-1.1-1.3-1.1H31l-2.8-2.5c-.3-.2-.6-.4-1-.4h-5.6c-1.3 0-2.5.4-3.4 1.2L15.1 21l-4.2 1c-.5.1-.9.6-.9 1.2v1.2c-.2 0-.3.1-.3.3v1.6c0 .2.2.4.4.4h2.4v-.3c0-1.7 1.4-3.1 3.1-3.1s3.1 1.4 3.1 3.1v.3h6.6v-.3c0-1.7 1.4-3.1 3.1-3.1 1.7 0 3.1 1.4 3.1 3.1v.3h2.2c.2 0 .4-.2.4-.4v-1.5c-.1 0-.3-.2-.5-.2zm-8.3-4l-7.8.4 1.5-1.2c.8-.7 1.8-1 2.9-1h3.4v1.8zm1.3-.1v-1.7h.5c.2 0 .3.1.5.2l1.6 1.4-2.6.1z"/><path class="st1" d="M28.3 24.2c-1.4 0-2.5 1.1-2.5 2.5s1.1 2.5 2.5 2.5 2.5-1.1 2.5-2.5-1.2-2.5-2.5-2.5zm0 3.2c-.4 0-.7-.3-.7-.7s.3-.7.7-.7c.4 0 .7.3.7.7s-.3.7-.7.7zM13.6 13.1h.4c.7 0 1.4-.2 1.8-.6.3-.3.5-.8.5-1.3s-.2-1-.6-1.3c-.4-.3-.9-.4-1.7-.4-.8 0-1.3 0-1.7.1v5.5h1.2v-2zm0-2.6h.5c.6 0 1 .3 1 .8 0 .6-.4.9-1.1.9h-.4v-1.7z"/><path class="st1" d="M11.2 16.8h6.2c.8 0 1.4-.6 1.4-1.4V9.2c0-.8-.6-1.4-1.4-1.4h-6.2c-.8 0-1.4.6-1.4 1.4v6.2c0 .8.7 1.4 1.4 1.4zm-.3-7.5c0-.2.2-.4.4-.4h6c.2 0 .4.2.4.4v6c0 .2-.2.4-.4.4h-6c-.2 0-.4-.2-.4-.4v-6z"/></g></svg>