<svg id="Layer_1" xmlns="http://www.w3.org/2000/svg" width="42.7" height="60" viewBox="0 0 42.7 60"><style>.st0{fill:#30851f}.st1{fill:#fff}</style><g id="precinct-Stadium-store"><path id="path-precinct-Stadium-store" class="st0" d="M21.3 60c-.4 0-.8-.2-1.1-.5C19.4 58.4 0 32.7 0 21.3 0 9.6 9.6 0 21.3 0s21.3 9.6 21.3 21.3c0 11.4-19.4 37-20.2 38.1-.2.4-.6.6-1.1.6z"/><path class="st1" d="M32.3 14.5h-2.7v-1c0-2.6-2.1-4.7-4.7-4.7h-6.5c-2.6 0-4.7 2.1-4.7 4.7v1h-3.4c-.8 0-1.5.7-1.5 1.5v1.7c0 .8.7 1.5 1.5 1.5h.3l1.2 10c.1.8.7 1.3 1.5 1.3h15.9c.8 0 1.4-.6 1.5-1.3l1.2-10h.3c.8 0 1.5-.7 1.5-1.5V16c.1-.8-.5-1.5-1.4-1.5zm-16-1c0-1.2 1-2.2 2.2-2.2H25c1.2 0 2.2 1 2.2 2.2v1H16.3v-1zm12.6 15.1H13.8l-1-8.5h17.1l-1 8.5z"/><path class="st1" d="M15.8 27.3c.3 0 .5-.2.5-.5v-5c0-.3-.2-.5-.5-.5s-.5.2-.5.5v5c0 .3.2.5.5.5zm2.8 0c.3 0 .5-.2.5-.5v-5c0-.3-.2-.5-.5-.5s-.5.2-.5.5v5c0 .3.2.5.5.5zm2.7 0c.3 0 .5-.2.5-.5v-5c0-.3-.2-.5-.5-.5s-.5.2-.5.5v5c0 .3.3.5.5.5zm2.8 0c.3 0 .5-.2.5-.5v-5c0-.3-.2-.5-.5-.5s-.5.2-.5.5v5c0 .3.3.5.5.5zm2.8 0c.3 0 .5-.2.5-.5v-3.3c0-.3-.2-.5-.5-.5s-.5.2-.5.5v3.3c0 .3.2.5.5.5z"/><circle class="st1" cx="26.9" cy="22" r=".5"/></g></svg>