<svg id="Layer_1" xmlns="http://www.w3.org/2000/svg" width="42.7" height="60" viewBox="0 0 42.7 60"><style>.st0{fill:#0077c8}.st1{fill:#fff}</style><g id="precinct-allianz-gate-g"><path id="path-precinct-allianz-gate-g" class="st0" d="M21.3 60c-.4 0-.8-.2-1.1-.5C19.4 58.4 0 32.7 0 21.3 0 9.6 9.6 0 21.3 0s21.3 9.6 21.3 21.3c0 11.4-19.4 37-20.2 38.1-.2.4-.6.6-1.1.6z"/><path class="st1" d="M22.1 36.8c-.7 0-1.4-.1-2-.3-.6-.2-1.2-.5-1.7-1-.5-.4-.8-1-1.1-1.7s-.4-1.4-.4-2.3c0-.9.1-1.7.4-2.3.3-.7.7-1.2 1.1-1.7.5-.5 1-.8 1.7-1.1.6-.2 1.3-.4 2-.4.8 0 1.4.1 2 .4s1 .6 1.4 1L24 29.2c-.3-.2-.5-.4-.8-.6-.3-.1-.6-.2-1-.2s-.7.1-1 .2c-.3.1-.6.3-.8.6-.2.3-.4.6-.5.9-.1.4-.2.8-.2 1.3 0 1 .2 1.7.7 2.3.4.5 1.1.8 2.1.8h.4c.1 0 .3-.1.4-.1V33h-1.5v-2.2h4v5c-.4.4-.9.7-1.5.9s-1.4.1-2.2.1zM7.3 19.5c0-.7.1-1.2.3-1.8.2-.5.5-.9.8-1.3.3-.3.7-.6 1.2-.8.4-.2.9-.3 1.4-.3.5 0 1 .1 1.4.3.4.2.7.4 1 .7l-1.1 1.3c-.2-.2-.3-.3-.5-.4-.2-.1-.4-.1-.7-.1-.2 0-.4.1-.6.2-.2.1-.4.3-.5.4-.1.2-.3.4-.3.7-.1.3-.1.6-.1.9 0 .7.1 1.3.4 1.7.3.4.7.6 1.2.6h.3c.1 0 .2-.1.2-.1v-1.1h-1v-1.7h2.8v3.7c-.1.1-.3.2-.5.4l-.6.3c-.2.1-.4.2-.7.2-.2.1-.5.1-.7.1-.5 0-1-.1-1.4-.2-.4-.2-.8-.4-1.2-.7-.3-.3-.6-.7-.8-1.2-.2-.6-.3-1.2-.3-1.8zm11.8 2.2H17l-.4 1.7h-2.1l2.4-7.8h2.5l2.4 7.8h-2.2l-.5-1.7zm-.3-1.6l-.1-.5-.3-1.2c-.1-.4-.2-.9-.3-1.2-.1.4-.2.8-.3 1.3l-.3 1.2-.1.5h1.4zm5.3-2.9h-2.2v-1.7h6.6v1.7h-2.2v6.1h-2.1v-6.1zm5.9-1.7h5.3v1.7h-3.2v1.2h2.7v1.7h-2.7v1.4h3.3v1.7H30v-7.7z"/></g></svg>