<svg id="Layer_1" xmlns="http://www.w3.org/2000/svg" width="42.7" height="60" viewBox="0 0 42.7 60"><style>.st0{fill:#ee202e}.st1{fill:#fff}</style><g id="precinct-western-box-office"><path id="path-precinct-western-box-office" class="st0" d="M21.3 60c-.4 0-.8-.2-1.1-.5C19.4 58.4 0 32.7 0 21.3 0 9.6 9.6 0 21.3 0s21.3 9.6 21.3 21.3c0 11.4-19.4 37-20.2 38.1-.2.4-.6.6-1.1.6z"/><path class="st1" d="M35 14.1l-.4-3.1-5.4.8-17.4 2.5-5.4.8.4 3.1c1.8-.3 3.4 1 3.7 2.7.3 1.8-1 3.4-2.7 3.7l.4 3.1 5.2-.7 17.4-2.5 5.6-.8-.4-3.1c-1.8.3-3.4-1-3.7-2.7-.3-1.9.9-3.5 2.7-3.8zm-17.1 5.6l-1 1 .6 1.3c.1.1 0 .3-.1.4-.1.1-.1.1-.2.1H17l-1.3-.7-1 1c-.1.1-.1.1-.2.1h-.2c-.1-.1-.2-.2-.2-.4l.2-1.4-1.3-.7c-.1-.1-.2-.2-.2-.4s.2-.3.3-.3l1.4-.2.2-1.4c0-.2.2-.3.3-.3.2 0 .3.1.4.2l.6 1.3 1.4-.2c.2 0 .3.1.4.2.2.1.2.2.1.4zm4.8.6l-3.2.5c-.2 0-.4-.1-.4-.3 0-.2.1-.4.3-.4l3.2-.5c.2 0 .4.1.4.3 0 .2-.1.3-.3.4zm2.8-1.9l-6.2.9c-.2 0-.4-.1-.4-.3 0-.2.1-.4.3-.4l6.2-.9c.2 0 .4.1.4.3 0 .2-.1.4-.3.4zm4.1 5.7v.2c-.1.1-.2.1-.3.2-.1 0-.2 0-.3-.1l-.1-.1V24c0-.1 0-.2.1-.3.1-.1.2-.1.3-.2.1 0 .2 0 .3.1-.1.2 0 .3 0 .5 0-.1 0 0 0 0zm-.5-1.1c-.2 0-.4-.1-.4-.3 0-.2.1-.4.3-.4.2 0 .4.1.4.3 0 .2-.1.4-.3.4zm-.3-1.4c-.2 0-.4-.1-.4-.3 0-.2.1-.4.3-.4.2 0 .4.1.4.3.1.2 0 .4-.3.4zm-.2-1.4c-.2 0-.4-.1-.4-.3 0-.2.1-.4.3-.4.2 0 .4.1.4.3.1.1 0 .3-.3.4zm-.2-1.5c-.2 0-.4-.1-.4-.3 0-.2.1-.4.3-.4.2 0 .4.1.4.3.1.2 0 .4-.3.4zm-.2-1.4c-.2 0-.4-.1-.4-.3 0-.2.1-.4.3-.4.2 0 .4.1.4.3.1.2-.1.4-.3.4zm-.2-1.4c-.2 0-.4-.1-.4-.3 0-.2.1-.4.3-.4.2 0 .4.1.4.3.1.2-.1.4-.3.4zm-.2-1.4c-.2 0-.4-.1-.4-.3 0-.2.1-.4.3-.4.2 0 .4.1.4.3.1.1-.1.3-.3.4zm.1-1.6c-.1.1-.2.1-.3.1h-.4l-.1-.1v-.7l.1-.1h.2c.1 0 .3 0 .4.1l.1.1v.3c.1.1 0 .2 0 .3z"/></g></svg>