<svg id="Layer_1" xmlns="http://www.w3.org/2000/svg" width="42.7" height="60" viewBox="0 0 42.7 60"><style>.st0{fill:#30851f}.st1{fill:#fff}</style><g id="precinct-indoor-cricket-centre"><path id="path-precinct-indoor-cricket-centre" class="st0" d="M21.3 60c-.4 0-.8-.2-1.1-.5C19.4 58.4 0 32.7 0 21.3 0 9.6 9.6 0 21.3 0s21.3 9.6 21.3 21.3c0 11.4-19.4 37-20.2 38.1-.2.4-.6.6-1.1.6z"/><path class="st1" d="M15.1 27.5l1.9 1.9c.7.7 1.8.7 2.5 0l9.3-9.3c.7-.7.7-1.8 0-2.5l-.2-.2 4.1-4.1c.4-.4.4-1.1 0-1.5-.4-.4-1.1-.4-1.5 0l-4.1 4.1-.1-.3c-.7-.7-1.8-.7-2.5 0L15.1 25c-.7.7-.7 1.8 0 2.5z"/><path class="st1" d="M14.4 28.3c-.5-.5-.8-1.3-.8-2s.3-1.5.8-2l.9-.9V8c0-.6-.5-1.1-1.1-1.1h-.1c-.6 0-1.1.5-1.1 1.1v25.2h2.2v-4l-.8-.9zm5.6-9.7V8c0-.6-.5-1-1.1-1h-.1c-.6 0-1.1.5-1.1 1.1v12.8l2.3-2.3zM18.3 31h-.5v2.2H20v-2.7c-.5.3-1.1.5-1.7.5zm4.2-3v5.2h2.2v-7.4zm1.2-13.1c.3-.3.6-.5 1-.7V8c0-.6-.5-1.1-1.1-1.1h-.1c-.5.1-1 .5-1 1.1v8l1.2-1.1z"/><circle class="st1" cx="29.2" cy="26.7" r="2.6"/><path class="st1" d="M23.3 6.2h-.7V6c0-.2-.1-.3-.3-.3h-1.8c-.2 0-.3.1-.3.3v.2h-2.4V6c0-.2-.1-.3-.3-.3h-1.8c-.2 0-.3.1-.3.3v.2h-.7c-.2 0-.4.2-.4.4s.2.4.4.4h.7v.4c0 .2.1.3.3.3h1.8c.2 0 .3-.1.3-.3V7h2.4v.4c0 .2.1.3.3.3h1.8c.2 0 .3-.1.3-.3V7h.7c.2 0 .4-.2.4-.4-.1-.2-.2-.4-.4-.4z"/></g></svg>