<svg id="Layer_1" xmlns="http://www.w3.org/2000/svg" width="42.7" height="60" viewBox="0 0 42.7 60"><style>.st0{fill:#e8a721}.st1{fill:#fff}</style><g id="precinct-hordern-pavilion"><path id="path-precinct-hordern-pavilion" class="st0" d="M21.3 60c-.4 0-.8-.2-1.1-.5C19.4 58.4 0 32.7 0 21.3 0 9.6 9.6 0 21.3 0s21.3 9.6 21.3 21.3c0 11.4-19.4 37-20.2 38.1-.2.4-.6.6-1.1.6z"/><circle class="st1" cx="27.2" cy="9.5" r="1.5"/><path class="st1" d="M34.1 12.4c.1-.1 0-.1 0 0 .3-.2.3-.5.2-.7-.2-.2-.5-.2-.7-.1l-.1.1-.1-.2c-.1-.2-.4-.2-.5-.1-.2.1-.2.4-.1.5l.1.2-.1.1c-.1-.2-.1-.1-.1-.2-.1-.2-.4-.2-.5-.1-.2.1-.2.4-.1.5l.1.2-2.3 1.8c-.9-.8-2-.6-2.4.3-.1.2-.2.4-.4.5l.8.6c.3-.2.7-.2.9.1.2.3.2.7-.1.9-.1.1-.3.1-.4.1 0 .2-.1.5-.3.7-.2.3-.6.5-.9.6l.1.2c.1.2.1.4-.1.5-.2.1-.4.1-.5-.1l-.9-1.1-1.5-1.1c-.2 1 .3 2 1 2.7.8.7 2 1.1 2.9.4.4-.3.6-.8.7-1.3 0-.5.4-.9.9-1 .9-.1 1.4-1.2.8-2.3l2.3-1.8.1.2c.1.2.4.2.6 0 .1-.1.2-.4 0-.5h-.2l.1-.1.1.2c.1.2.4.2.5.1.2-.1.2-.4.1-.5v-.3z"/><path class="st1" d="M29.2 11.5h-3.9c-1 0-1.7.8-1.7 1.7v1.7c0 .3.1.5.3.6l2.5 1.8c.3.2.8.2 1-.2.2-.3.2-.8-.2-1-1.4-1-1.1-.8-2.2-1.6v-1.4c0-.1.1-.1.1-.1.1 0 .1.1.1.1v.9l.9.6h.3c.1 0 .3-.1.3-.2.1-.3.3-.6.6-.8.3-.3.8-.4 1.2-.4.2 0 .4 0 .6.1 0-.1 0-.1.1-.1s.1 0 .2.1v.2c.1 0 .2.1.3.2l1-.8c-.1-.9-.7-1.4-1.5-1.4z"/><circle class="st1" cx="15.3" cy="11" r="1.6"/><path class="st1" d="M22.1 12.7l-.8-.6.2-.3c.2-.4 0-.8-.3-1-.4-.2-.8 0-1 .3l-.1.1-.5-.3c0-.3-.1-.6-.3-.8-.4-.3-.9-.2-1.2.2-.3.4-.2.9.2 1.2.3.2.6.2.9.1l.6.4-.6 1-2-.2s-2.6.4-2.7.5l-1.9-1.6-.9-3.1c-.1-.4-.5-.6-1-.5s-.6.5-.5 1l.9 3.3c0 .1.1.3.2.4l2.4 2 .9 5.8c1.1.3 1.9 1.2 2.1 2.3 0-.4.1.1-.3-3.2l.4-.1.2.3v-.3l.1-.7c.1-.7.5-1.2 1.2-1.4l-.5-2.9s1.7.1 1.8.1c.3 0 .6-.2.7-.4L21 13l.7.5c.2.1.4.1.5-.1.1-.3.1-.6-.1-.7z"/><path class="st1" d="M19 18.1c-.5-.1-.9.3-1 .8l-.4 4.2-2.2 2.8h-2.9l-2-3.2-.3-3.8c0-.5-.5-.8-.9-.8-.5 0-.8.5-.8.9l.3 4.1c0 .1.1.3.1.4 2.7 4.1 2.5 3.9 2.6 4v6.6h5v-6.7l2.6-3.4c.1-.1.2-.3.2-.4l.5-4.5c0-.5-.3-.9-.8-1zm11.7 0c-.5-.1-.9.3-1 .8l-.4 4.2-2.2 2.8h-3.4l-1.9-1.8 1.9-3.3c.2-.4.1-1-.3-1.2-.4-.2-1-.1-1.2.3-.3.5-2 3.4-2.3 3.9-.1.2-.1.4-.1.6.1.4.7.9 3.4 3.4v6.3h5v-6.7l2.6-3.4c.1-.1.2-.3.2-.4l.5-4.5c0-.5-.3-.9-.8-1z"/><circle class="st1" cx="14" cy="23.2" r="2"/><circle class="st1" cx="25.7" cy="23.3" r="2"/></g></svg>