<svg id="Layer_1" xmlns="http://www.w3.org/2000/svg" width="42.7" height="60" viewBox="0 0 42.7 60"><style>.st0{fill:#704b43}.st1{fill:#fff}</style><g id="precinct-bus-station-c"><path id="path-precinct-bus-station-c" class="st0" d="M21.3 60c-.4 0-.8-.2-1.1-.5C19.4 58.4 0 32.7 0 21.3 0 9.6 9.6 0 21.3 0s21.3 9.6 21.3 21.3c0 11.4-19.4 37-20.2 38.1-.2.4-.6.6-1.1.6z"/><path class="st1" d="M12.1 13.1h.4c.7 0 1.4-.2 1.8-.6.3-.3.5-.8.5-1.3s-.2-1-.6-1.3c-.4-.3-.9-.4-1.7-.4-.8 0-1.3 0-1.7.1v5.5H12v-2zm0-2.6h.5c.6 0 1 .3 1 .8 0 .6-.4.9-1.1.9h-.4v-1.7z"/><path class="st1" d="M9.7 16.8h6.2c.8 0 1.4-.6 1.4-1.4V9.2c0-.8-.6-1.4-1.4-1.4H9.7c-.7 0-1.4.6-1.4 1.4v6.2c0 .8.7 1.4 1.4 1.4zm-.3-7.5c0-.2.2-.4.4-.4h6c.2 0 .4.2.4.4v6c0 .2-.2.4-.4.4h-6c-.2 0-.4-.2-.4-.4v-6zm19.7 18.2c0 .9.8 1.7 1.7 1.7.9 0 1.7-.8 1.7-1.7 0-.9-.8-1.7-1.7-1.7-.9 0-1.7.7-1.7 1.7zm.6 0c0-.6.5-1.1 1.1-1.1.6 0 1.1.5 1.1 1.1 0 .6-.5 1.1-1.1 1.1-.6-.1-1.1-.6-1.1-1.1zm-14.1 0c0 .9.8 1.7 1.7 1.7.9 0 1.7-.8 1.7-1.7 0-.9-.8-1.7-1.7-1.7-.9 0-1.7.7-1.7 1.7zm.6 0c0-.6.5-1.1 1.1-1.1.6 0 1.1.5 1.1 1.1 0 .6-.5 1.1-1.1 1.1-.6-.1-1.1-.6-1.1-1.1zm-2.1-2.1v1.4c0 .1-.1.2-.2.2h-.6v.7h2.1v-.3c0-1 .8-1.9 1.9-1.9 1 0 1.9.8 1.9 1.9v.3H29v-.3c0-1 .8-1.9 1.9-1.9s1.9.8 1.9 1.9v.3h.5c1 0 1.8-.8 1.8-1.8v-6.3c0-1-.8-1.8-1.8-1.8h-18c-1 0-1.8.8-1.8 1.8v5.6h.6c-.1.1 0 .1 0 .2zm12.1-6.6v4.3h-3.3v-4.3h3.3zm3.6 4.3v-4.3h3.5c.1 0 .2.1.2.2v3.1c0 .1 0 1-1.5 1h-2.2zm-3.4 0v-4.3h3.3v4.3h-3.3zm-7.2-4.3h3.6v4.3h-3.6v-4.3zm-1.6.2c0-.1.1-.2.2-.2H19v4.3h-1.2c-.1 0-.2-.1-.2-.2V19zm-3.2 5.1v-4.4c0-.5.4-.9.9-.9H17V23s-.1.8-1 1c-.8.2-1.6.1-1.6.1z"/></g></svg>