<svg id="Layer_1" xmlns="http://www.w3.org/2000/svg" width="43" height="60" viewBox="0 0 43 60"><style>.st0{fill:#fff}.st1{fill:url(#SVGID_1_)}.st2{fill:url(#SVGID_2_)}.st3{fill:url(#SVGID_3_)}.st4{fill:url(#SVGID_4_)}.st5{fill:url(#SVGID_5_)}</style><g id="precinct-SCSGT"><path id="path-precinct-SCSGT" class="st0" d="M21.5 60c-.432 0-.839-.202-1.101-.546C19.573 58.367.161 32.696.161 21.339.161 9.573 9.733 0 21.5 0s21.339 9.573 21.339 21.339c0 11.357-19.412 37.028-20.238 38.115A1.384 1.384 0 0 1 21.5 60z"/><radialGradient id="SVGID_1_" cx="28.152" cy="47.932" r="20.435" gradientTransform="matrix(1 0 0 -1 0 62)" gradientUnits="userSpaceOnUse"><stop offset="0" stop-color="#223d7c"/><stop offset=".21" stop-color="#1e76bd"/><stop offset="1" stop-color="#223d7c"/></radialGradient><path class="st1" d="M24.226 17.467a7.657 7.657 0 0 1 2.851-.524c5.757.045 9.743 3.792 9.793 7.303.02 1.4-2.349 1.763-8.146-2.206l-.544-.38.02 1.816.647.348a.587.587 0 0 1 .219.826c.16.433.351.854.572 1.259 1.06.284 2.14.484 3.231.599 2.581.252 4.926-.201 4.689-2.518-.292-2.861-3.621-7.252-10.118-7.416a7.832 7.832 0 0 0-3.274.594c.049.091.07.195.06.299z"/><radialGradient id="SVGID_2_" cx="28.152" cy="47.932" r="20.435" gradientTransform="matrix(1 0 0 -1 0 62)" gradientUnits="userSpaceOnUse"><stop offset=".04" stop-color="#223d7c"/><stop offset=".45" stop-color="#1e76bd"/><stop offset="1" stop-color="#223d7c"/></radialGradient><path class="st2" d="M25.71 20.111l-.038.083a.531.531 0 0 1-.164.206.537.537 0 0 1-.355.385l-.06.02.136 1.748.073.045a.631.631 0 0 1 .06 1.032c.061.224.139.443.234.655l.481.229a.586.586 0 0 1 .325-.755l.625-.252v-2.672c-.395-.282-.818-.577-1.259-.884a.547.547 0 0 1-.058.16z"/><radialGradient id="SVGID_3_" cx="28.152" cy="47.932" r="20.435" gradientTransform="matrix(1 0 0 -1 0 62)" gradientUnits="userSpaceOnUse"><stop offset=".04" stop-color="#223d7c"/><stop offset=".45" stop-color="#1e76bd"/><stop offset="1" stop-color="#223d7c"/></radialGradient><path class="st3" d="M17.818 19.149a.615.615 0 0 1 .186.945c.177.67.608 1.245 1.201 1.604l1.108.536-.065-1.435-.282-.144a.537.537 0 0 1-.282-.373.538.538 0 0 1-.169-.189l-.04-.076a.537.537 0 0 1 .312-.755l.149-.045c.483-.363.794-.91.859-1.511a.529.529 0 0 1-.118-.252l-.015-.081a.54.54 0 0 1 .063-.358 16.398 16.398 0 0 0-4.09-1.259l.033 2.798 1.15.595z"/><radialGradient id="SVGID_4_" cx="28.152" cy="47.932" r="20.435" gradientTransform="matrix(1 0 0 -1 0 62)" gradientUnits="userSpaceOnUse"><stop offset=".04" stop-color="#223d7c"/><stop offset=".45" stop-color="#1e76bd"/><stop offset="1" stop-color="#223d7c"/></radialGradient><path class="st4" d="M11.197 20.852c.883-.073 1.77-.067 2.652.018a4.09 4.09 0 0 0 .222-.841.613.613 0 0 1 .227-.977l1.141-.446v-3.022a13.683 13.683 0 0 0-2.236 0c-8.64.773-8.506 10.325-8.506 10.307.232-2.264 2.877-4.725 6.5-5.039z"/><radialGradient id="SVGID_5_" cx="232.774" cy="-32.184" r="23.764" gradientTransform="matrix(-.9377 -.3474 -.1737 .4689 240.957 113.8)" gradientUnits="userSpaceOnUse"><stop offset="0" stop-color="#c4d82e"/><stop offset=".39" stop-color="#88c540"/><stop offset=".81" stop-color="#02653f"/><stop offset="1" stop-color="#004231"/></radialGradient><path class="st5" d="M37.679 25.188c-.206 1.79-2.352 2.143-4.689 1.911a21.615 21.615 0 0 1-3.677-.72c-.431-.708-.786-1.536-.803-1.926l.055-.025v-.048a.05.05 0 0 0 .038-.093l-.899-.483-.035.013-.033-2.936a2.59 2.59 0 0 1 .368-.204.814.814 0 0 1 .876.053c.441.365 1.194.217 1.176.201-.196-.189-.32-.72-.322-1.02-.441-.237-.705-.023-1.103-.468-.141-.159-.539-.252-1.007-.252-.068 0-.154 0-.166.045v4.656l-.846.345c-.026.009-.041.038-.031.064s.038.041.064.031v.055l.055.025a2.151 2.151 0 0 1-.252.864l-1.259-.599s-.408-.831-.408-1.375l.234-.091a.088.088 0 0 0 0-.159l-.302-.189-.184-2.44.461-.151-.03-.227.227-.076.038-.083s-1.511-.72-1.662-2.312c0-.068.123-.106.123-.106v-.073l-1.007-.72-.199.078-.045-5.258a3.58 3.58 0 0 1 .504-.287c.138-.076.291-.12.448-.126.861-.018.98.755 1.511.685.531-.071.504.164.708.297.209-.274.038-.617-.083-.957-.139-.378-.043-.589-.078-.773-.34-.214-.642-.453-1.141-.486-.403-.028-.71-.627-1.667-.695-.068 0-.383-.096-.486.081l.023 7.63-1.007.385.015.081s.123.063.126.141c0 0 .131 1.259-1.141 2.208l-.252.076.04.076.222.136v.204l.557.287.111 2.425-.287.081-1.637-.796a3.215 3.215 0 0 1-1.536-2.294l.083-.038v-.073a.078.078 0 0 0 .095-.056.077.077 0 0 0-.037-.087l-1.382-.743-.053.02-.003-4.518c.18-.123.37-.229.569-.317a1.555 1.555 0 0 1 1.735.428.878.878 0 0 0 .793.239c.233-.029.452-.126.63-.28a3.494 3.494 0 0 1-.504-1.569c-.168.035-.342.03-.509-.013-.166-.083-.186-.252-.476-.232-.29.02-.594-.355-.703-.468-.227-.227-.808-.375-1.511-.383a.377.377 0 0 0-.252.048l-.028 7.167-1.332.546a.08.08 0 0 0-.034.105c.016.031.05.047.084.041l.015.086.083.038c-.05.307-.139 1.103-.504 1.659a15.01 15.01 0 0 0-2.828-.03c-3.465.302-6.044 2.564-6.464 4.757-.053.564-.048.907-.048.907.252-2.281 2.888-4.744 6.512-5.059 7.532-.655 14.102 4.9 21.684 5.653 2.571.256 4.915-.202 4.679-2.514z"/></g></svg>