<svg id="Layer_1" xmlns="http://www.w3.org/2000/svg" width="42.7" height="60" viewBox="0 0 42.7 60"><style>.st0{fill:#30851f}.st1{fill:#fff}</style><g id="precinct-members-lawn"><path id="path-precinct-members-lawn" class="st0" d="M21.3 60c-.4 0-.8-.2-1.1-.5C19.4 58.4 0 32.7 0 21.3 0 9.6 9.6 0 21.3 0s21.3 9.6 21.3 21.3c0 11.4-19.4 37-20.2 38.1-.2.4-.6.6-1.1.6z"/><path class="st1" d="M27.8 10.6h-3.2c0 1.7-1.4 3.1-3.1 3.2-1.7 0-3.2-1.4-3.2-3.1 0-.1 0-.1-.1-.1h-3.3c-2 0-3.7 1.7-3.7 3.7v12.9c0 2 1.7 3.7 3.7 3.7h12.9c2 0 3.7-1.7 3.7-3.7V14.3c0-2-1.7-3.7-3.7-3.7zm-6.4 6.3c1.5 0 2.7 1.2 2.7 2.7 0 1.5-1.2 2.7-2.7 2.7s-2.7-1.2-2.7-2.7c0-1.5 1.2-2.7 2.7-2.7zm2.8 10.3h-5.5c-1.3 0-2.4-1.2-2-2.4.1-.3.3-.8.5-1.5.3-.8 1.3-1.2 2-.6.6.5 1.4.7 2.3.7.9 0 1.6-.3 2.3-.7.7-.5 1.7-.2 2 .6.2.6.4 1.1.5 1.5.3 1.2-.8 2.4-2.1 2.4z"/><path class="st1" d="M21.4 12.6c1 0 1.9-.9 1.9-1.9V7.8c0-1-.9-1.9-1.9-1.9-1 0-1.9.9-1.9 1.9v2.9c0 1 .8 1.9 1.9 1.9z"/></g></svg>