<svg xmlns="http://www.w3.org/2000/svg" width="43" height="60" viewBox="0 0 43 60"><path fill="#b8aa00" d="M21.5 60c-.432 0-.839-.202-1.101-.546C19.573 58.367.161 32.696.161 21.339.161 9.573 9.733 0 21.5 0s21.339 9.573 21.339 21.339c0 11.357-19.412 37.028-20.238 38.115A1.384 1.384 0 0 1 21.5 60z"/><g fill="#FFF"><circle cx="21.5" cy="11.864" r="2.045"/><path d="M30.589 22.088a.454.454 0 0 0-.706-.378l-.319.213a35.474 35.474 0 0 0-2.082-2.827.453.453 0 1 0-.704.574 33.528 33.528 0 0 1 2.038 2.751l-.297.198a.455.455 0 0 0 .034.777l1.243.68c.843 1.626.928 2.579.644 2.863-.322.322-1.505.21-3.777-1.16-.906-.547-1.884-1.241-2.891-2.031v-2.111h.909a.455.455 0 0 0 .455-.455v-1.624c1.777-1.877 3.309-3.77 4.434-5.481l.313.209a.451.451 0 0 0 .466.022.454.454 0 0 0 .24-.401v-1.544c1.015-1.932 1.184-3.26.494-3.95-1.353-1.352-4.926.924-6.937 2.401a.454.454 0 1 0 .538.732c3.266-2.398 5.275-2.973 5.756-2.49.276.276.228 1.187-.648 2.866l-1.239.678a.453.453 0 0 0-.034.777l.294.196c-.954 1.454-2.216 3.047-3.677 4.651v-1.765c0-.42-.183-.806-.489-1.033a5.273 5.273 0 0 0-6.295 0c-.306.227-.489.613-.489 1.033v1.764c-1.462-1.604-2.723-3.197-3.677-4.65l.294-.196a.455.455 0 0 0-.034-.777l-1.24-.678c-.876-1.678-.924-2.59-.648-2.865.484-.483 2.492.092 5.761 2.494a.455.455 0 0 0 .538-.732c-2.012-1.479-5.59-3.757-6.941-2.404-.69.69-.521 2.019.495 3.952v1.542a.454.454 0 0 0 .706.379l.312-.208c1.124 1.711 2.657 3.603 4.433 5.48v1.625c0 .251.203.455.455.455h.909v2.112c-1.007.79-1.984 1.485-2.89 2.031-2.274 1.371-3.457 1.48-3.777 1.16-.284-.284-.198-1.238.645-2.864l1.242-.679a.453.453 0 0 0 .034-.777l-.296-.197a33.657 33.657 0 0 1 2.026-2.737.456.456 0 0 0-.065-.64.457.457 0 0 0-.64.065 35.437 35.437 0 0 0-2.07 2.812l-.319-.213a.454.454 0 0 0-.706.378v1.565c-.831 1.59-1.282 3.14-.494 3.928.28.277.662.416 1.146.416.9 0 2.152-.482 3.744-1.442a28.372 28.372 0 0 0 2.421-1.66v1.738c0 .251.203.455.455.455h3.636a.455.455 0 0 0 .455-.455v-1.739a28.606 28.606 0 0 0 2.421 1.66c1.592.961 2.844 1.442 3.745 1.442.484 0 .866-.139 1.145-.418.788-.788.337-2.338-.494-3.928v-1.565z"/></g></svg>