<svg id="Layer_1" xmlns="http://www.w3.org/2000/svg" width="43" height="60" viewBox="0 0 43 60"><style>.st0{fill:#30851f}.st1{fill:#fff}</style><path class="st0" d="M21.5 60c-.4 0-.8-.2-1.1-.5C19.6 58.4.2 32.7.2 21.3.2 9.6 9.7 0 21.5 0s21.3 9.6 21.3 21.3c0 11.4-19.4 37-20.2 38.1-.3.4-.7.6-1.1.6z"/><path class="st1" d="M29.2 7.3c-4 .4-7 2.4-8.7 5.2-1.2 1.4-3.5 5.9-4.3 8.2-1.5 2.9-2.8 6.3-3.9 9.4-.6 1.9 2.2 3.1 2.9 1.2.8-2.3 1.7-4.8 2.8-7.1 1.1 2.4 2.1 4.7 3.3 7 .9 1.8 3.6.2 2.7-1.6-1.2-2.4-2.3-4.8-3.4-7.2v-.1c.2.1.4.1.6 0 1.7-.3 3.3-.6 5-.9.7-.1 1-.9.9-1.5-.3-1.9-1.4-3.2-2.7-4.4-.2-.7-.8-1.3-1.6-1.8 1.5-2.4 3.9-3.7 7-3.9 1.6-.2 1-2.6-.6-2.5zm-6 10.6c.4.4.8.9 1 1.4-.8.2-1.6.3-2.4.5.4-.7.9-1.3 1.4-1.9z"/><circle class="st1" cx="26.6" cy="13.6" r="2.1"/></svg>